<svg width="20" height="21" viewBox="0 0 20 21" fill="none" xmlns="http://www.w3.org/2000/svg">
<path d="M16.7002 6.18471L11.9002 2.82637C10.5919 1.90971 8.58354 1.95971 7.32524 2.93471L3.15024 6.19304C2.3169 6.84304 1.65857 8.17637 1.65857 9.22633V14.9763C1.65857 17.1013 3.38357 18.8347 5.50857 18.8347H14.4919C16.6169 18.8347 18.3419 17.1097 18.3419 14.9847V9.33466C18.3419 8.20971 17.6169 6.82637 16.7002 6.18471ZM10.6252 15.5013C10.6252 15.843 10.3419 16.1263 10.0002 16.1263C9.65854 16.1263 9.37521 15.843 9.37521 15.5013V13.0013C9.37521 12.6597 9.65854 12.3763 10.0002 12.3763C10.3419 12.3763 10.6252 12.6597 10.6252 13.0013V15.5013Z" fill="white"/>
</svg>
