<svg width="20" height="21" viewBox="0 0 20 21" fill="none" xmlns="http://www.w3.org/2000/svg">
<path d="M14.1666 2.52475H5.83329C3.33329 2.52475 1.66663 4.19142 1.66663 6.69142V11.6914C1.66663 14.1914 3.33329 15.8581 5.83329 15.8581V17.6331C5.83329 18.2998 6.57496 18.6998 7.12496 18.3248L10.8333 15.8581H14.1666C16.6666 15.8581 18.3333 14.1914 18.3333 11.6914V6.69142C18.3333 4.19142 16.6666 2.52475 14.1666 2.52475ZM9.99996 12.6664C9.64996 12.6664 9.37496 12.3831 9.37496 12.0414C9.37496 11.6998 9.64996 11.4164 9.99996 11.4164C10.35 11.4164 10.625 11.6998 10.625 12.0414C10.625 12.3831 10.35 12.6664 9.99996 12.6664ZM11.05 9.20809C10.725 9.42476 10.625 9.56643 10.625 9.79976V9.97476C10.625 10.3164 10.3416 10.5998 9.99996 10.5998C9.65829 10.5998 9.37496 10.3164 9.37496 9.97476V9.79976C9.37496 8.83308 10.0833 8.35808 10.35 8.17475C10.6583 7.96642 10.7583 7.82475 10.7583 7.60808C10.7583 7.19142 10.4166 6.84975 9.99996 6.84975C9.58329 6.84975 9.24163 7.19142 9.24163 7.60808C9.24163 7.94975 8.95829 8.23308 8.61663 8.23308C8.27496 8.23308 7.99163 7.94975 7.99163 7.60808C7.99163 6.49975 8.89163 5.59975 9.99996 5.59975C11.1083 5.59975 12.0083 6.49975 12.0083 7.60808C12.0083 8.55808 11.3083 9.03309 11.05 9.20809Z" fill="#515155"/>
</svg>
