<svg width="52" height="57" viewBox="0 0 52 57" fill="none" xmlns="http://www.w3.org/2000/svg">
<g filter="url(#filter0_d_141_5256)">
<circle cx="26" cy="21" r="21" fill="white"/>
</g>
<path d="M32.3 12.9H30.5V11.95C30.5 11.698 30.4052 11.4564 30.2364 11.2782C30.0676 11.1001 29.8387 11 29.6 11C29.3613 11 29.1324 11.1001 28.9636 11.2782C28.7948 11.4564 28.7 11.698 28.7 11.95V12.9H23.3V11.95C23.3 11.698 23.2052 11.4564 23.0364 11.2782C22.8676 11.1001 22.6387 11 22.4 11C22.1613 11 21.9324 11.1001 21.7636 11.2782C21.5948 11.4564 21.5 11.698 21.5 11.95V12.9H19.7C18.9839 12.9 18.2972 13.2003 17.7908 13.7347C17.2845 14.2692 17 14.9941 17 15.75V27.15C17 27.9059 17.2845 28.6308 17.7908 29.1653C18.2972 29.6997 18.9839 30 19.7 30H32.3C33.0161 30 33.7028 29.6997 34.2092 29.1653C34.7155 28.6308 35 27.9059 35 27.15V15.75C35 14.9941 34.7155 14.2692 34.2092 13.7347C33.7028 13.2003 33.0161 12.9 32.3 12.9ZM33.2 27.15C33.2 27.402 33.1052 27.6436 32.9364 27.8218C32.7676 27.9999 32.5387 28.1 32.3 28.1H19.7C19.4613 28.1 19.2324 27.9999 19.0636 27.8218C18.8948 27.6436 18.8 27.402 18.8 27.15V20.5H33.2V27.15ZM33.2 18.6H18.8V15.75C18.8 15.498 18.8948 15.2564 19.0636 15.0782C19.2324 14.9001 19.4613 14.8 19.7 14.8H21.5V15.75C21.5 16.002 21.5948 16.2436 21.7636 16.4218C21.9324 16.5999 22.1613 16.7 22.4 16.7C22.6387 16.7 22.8676 16.5999 23.0364 16.4218C23.2052 16.2436 23.3 16.002 23.3 15.75V14.8H28.7V15.75C28.7 16.002 28.7948 16.2436 28.9636 16.4218C29.1324 16.5999 29.3613 16.7 29.6 16.7C29.8387 16.7 30.0676 16.5999 30.2364 16.4218C30.4052 16.2436 30.5 16.002 30.5 15.75V14.8H32.3C32.5387 14.8 32.7676 14.9001 32.9364 15.0782C33.1052 15.2564 33.2 15.498 33.2 15.75V18.6Z" fill="#F47920"/>
<defs>
<filter id="filter0_d_141_5256" x="0" y="0" width="52" height="57" filterUnits="userSpaceOnUse" color-interpolation-filters="sRGB">
<feFlood flood-opacity="0" result="BackgroundImageFix"/>
<feColorMatrix in="SourceAlpha" type="matrix" values="0 0 0 0 0 0 0 0 0 0 0 0 0 0 0 0 0 0 127 0" result="hardAlpha"/>
<feMorphology radius="6" operator="erode" in="SourceAlpha" result="effect1_dropShadow_141_5256"/>
<feOffset dy="10"/>
<feGaussianBlur stdDeviation="5.5"/>
<feComposite in2="hardAlpha" operator="out"/>
<feColorMatrix type="matrix" values="0 0 0 0 0.917647 0 0 0 0 0.356863 0 0 0 0 0.572549 0 0 0 1 0"/>
<feBlend mode="normal" in2="BackgroundImageFix" result="effect1_dropShadow_141_5256"/>
<feBlend mode="normal" in="SourceGraphic" in2="effect1_dropShadow_141_5256" result="shape"/>
</filter>
</defs>
</svg>
