<svg width="52" height="57" viewBox="0 0 52 57" fill="none" xmlns="http://www.w3.org/2000/svg">
<g filter="url(#filter0_d_141_5263)">
<circle cx="26" cy="21" r="21" fill="white"/>
</g>
<path d="M19.314 31C18.6713 31 18.1249 30.7448 17.6749 30.2344C17.225 29.724 17 29.1042 17 28.375V25.25H19.7989V11L21.1168 12.5L22.4347 11L23.7526 12.5L25.0705 11L26.3884 12.5L27.7107 11L29.0331 12.5L30.3554 11L31.6777 12.5L33 11V28.375C33 29.1042 32.775 29.724 32.3251 30.2344C31.8751 30.7448 31.3287 31 30.686 31H19.314ZM30.686 29.5C30.9798 29.5 31.2185 29.3958 31.4022 29.1875C31.5859 28.9792 31.6777 28.7083 31.6777 28.375V13.5H21.1212V25.25H29.6942V28.375C29.6942 28.7083 29.786 28.9792 29.9697 29.1875C30.1534 29.3958 30.3921 29.5 30.686 29.5ZM22.2893 17.45V15.95H27.5785V17.45H22.2893ZM22.2893 20.8V19.3H27.5785V20.8H22.2893ZM29.6281 17.45C29.4518 17.45 29.2975 17.375 29.1653 17.225C29.0331 17.075 28.9669 16.9 28.9669 16.7C28.9669 16.5 29.0331 16.325 29.1653 16.175C29.2975 16.025 29.4518 15.95 29.6281 15.95C29.8044 15.95 29.9587 16.025 30.0909 16.175C30.2231 16.325 30.2893 16.5 30.2893 16.7C30.2893 16.9 30.2231 17.075 30.0909 17.225C29.9587 17.375 29.8044 17.45 29.6281 17.45ZM29.6281 20.675C29.4518 20.675 29.2975 20.6 29.1653 20.45C29.0331 20.3 28.9669 20.125 28.9669 19.925C28.9669 19.725 29.0331 19.55 29.1653 19.4C29.2975 19.25 29.4518 19.175 29.6281 19.175C29.8044 19.175 29.9587 19.25 30.0909 19.4C30.2231 19.55 30.2893 19.725 30.2893 19.925C30.2893 20.125 30.2231 20.3 30.0909 20.45C29.9587 20.6 29.8044 20.675 29.6281 20.675ZM19.292 29.5H28.3719V26.75H18.3223V28.375C18.3223 28.7083 18.4152 28.9792 18.6011 29.1875C18.787 29.3958 19.0173 29.5 19.292 29.5Z" fill="#F47920"/>
<defs>
<filter id="filter0_d_141_5263" x="0" y="0" width="52" height="57" filterUnits="userSpaceOnUse" color-interpolation-filters="sRGB">
<feFlood flood-opacity="0" result="BackgroundImageFix"/>
<feColorMatrix in="SourceAlpha" type="matrix" values="0 0 0 0 0 0 0 0 0 0 0 0 0 0 0 0 0 0 127 0" result="hardAlpha"/>
<feMorphology radius="6" operator="erode" in="SourceAlpha" result="effect1_dropShadow_141_5263"/>
<feOffset dy="10"/>
<feGaussianBlur stdDeviation="5.5"/>
<feComposite in2="hardAlpha" operator="out"/>
<feColorMatrix type="matrix" values="0 0 0 0 0.917647 0 0 0 0 0.356863 0 0 0 0 0.572549 0 0 0 1 0"/>
<feBlend mode="normal" in2="BackgroundImageFix" result="effect1_dropShadow_141_5263"/>
<feBlend mode="normal" in="SourceGraphic" in2="effect1_dropShadow_141_5263" result="shape"/>
</filter>
</defs>
</svg>
