<svg width="52" height="57" viewBox="0 0 52 57" fill="none" xmlns="http://www.w3.org/2000/svg">
<g filter="url(#filter0_d_141_5270)">
<circle cx="26" cy="21" r="21" fill="white"/>
</g>
<path d="M18.9873 31V26.915C18.0413 26.0917 17.3069 25.1298 16.7842 24.0294C16.2614 22.929 16 21.7692 16 20.55C16 18.175 16.8713 16.1562 18.6139 14.4937C20.3565 12.8312 22.4725 12 24.9619 12C27.0364 12 28.8744 12.5819 30.476 13.7456C32.0775 14.9094 33.1189 16.4254 33.6002 18.2937L34.9694 23.4712C35.0357 23.6929 34.9943 23.8948 34.8449 24.0769C34.6955 24.259 34.4964 24.35 34.2474 24.35H31.9323V27.675C31.9323 28.0669 31.786 28.4023 31.4935 28.6814C31.201 28.9605 30.8494 29.1 30.4386 29.1H27.9492V31H26.4556V27.675H30.4386V22.925H33.2766L32.1563 18.65C31.758 17.1142 30.8867 15.8594 29.5424 14.8856C28.1981 13.9119 26.6713 13.425 24.9619 13.425C22.8874 13.425 21.1241 14.1098 19.6719 15.4794C18.2197 16.849 17.4937 18.5197 17.4937 20.4916C17.4937 21.5115 17.7121 22.4804 18.149 23.3984C18.5859 24.3163 19.2055 25.1323 20.008 25.8462L20.481 26.2737V31H18.9873ZM24.1902 24.0175H25.6838L25.7585 22.9725C25.9577 22.9408 26.1441 22.8738 26.3179 22.7715C26.4917 22.6692 26.6455 22.5541 26.7792 22.4262L27.8247 22.7587L28.5218 21.6187L27.7749 21.0487C27.8579 20.8271 27.8994 20.5975 27.8994 20.36C27.8994 20.1225 27.8579 19.8929 27.7749 19.6712L28.5218 19.1012L27.8247 17.9612L26.7792 18.2937C26.6409 18.172 26.4818 18.0623 26.302 17.9649C26.1222 17.8675 25.9411 17.795 25.7585 17.7475L25.6838 16.7025H24.1902L24.1155 17.7475C23.9329 17.795 23.7518 17.8675 23.572 17.9649C23.3922 18.0623 23.2331 18.172 23.0948 18.2937L22.0493 17.9612L21.3522 19.1012L22.0991 19.6712C22.0161 19.8929 21.9746 20.1225 21.9746 20.36C21.9746 20.5975 22.0161 20.8271 22.0991 21.0487L21.3522 21.6187L22.0493 22.7587L23.0948 22.4262C23.2285 22.5541 23.3823 22.6692 23.5561 22.7715C23.7299 22.8738 23.9163 22.9408 24.1155 22.9725L24.1902 24.0175ZM24.9399 22.0225C24.4567 22.0225 24.045 21.8611 23.7047 21.5384C23.3645 21.2157 23.1944 20.8238 23.1944 20.3628C23.1944 19.9018 23.3635 19.509 23.7018 19.1844C24.0401 18.8598 24.4508 18.6975 24.9341 18.6975C25.4173 18.6975 25.829 18.8589 26.1693 19.1816C26.5095 19.5043 26.6796 19.8962 26.6796 20.3572C26.6796 20.8182 26.5105 21.211 26.1722 21.5356C25.8339 21.8602 25.4232 22.0225 24.9399 22.0225Z" fill="#F47920"/>
<defs>
<filter id="filter0_d_141_5270" x="0" y="0" width="52" height="57" filterUnits="userSpaceOnUse" color-interpolation-filters="sRGB">
<feFlood flood-opacity="0" result="BackgroundImageFix"/>
<feColorMatrix in="SourceAlpha" type="matrix" values="0 0 0 0 0 0 0 0 0 0 0 0 0 0 0 0 0 0 127 0" result="hardAlpha"/>
<feMorphology radius="6" operator="erode" in="SourceAlpha" result="effect1_dropShadow_141_5270"/>
<feOffset dy="10"/>
<feGaussianBlur stdDeviation="5.5"/>
<feComposite in2="hardAlpha" operator="out"/>
<feColorMatrix type="matrix" values="0 0 0 0 0.917647 0 0 0 0 0.356863 0 0 0 0 0.572549 0 0 0 1 0"/>
<feBlend mode="normal" in2="BackgroundImageFix" result="effect1_dropShadow_141_5270"/>
<feBlend mode="normal" in="SourceGraphic" in2="effect1_dropShadow_141_5270" result="shape"/>
</filter>
</defs>
</svg>
