<svg width="52" height="57" viewBox="0 0 52 57" fill="none" xmlns="http://www.w3.org/2000/svg">
<g filter="url(#filter0_d_141_5278)">
<circle cx="26" cy="21" r="21" fill="white"/>
</g>
<path d="M17.35 12.5V19.875V19.775V29.5V12.5ZM19.5775 22.5H23.3575C23.5375 22.2167 23.7363 21.95 23.9538 21.7C24.1713 21.45 24.4075 21.2167 24.6625 21H19.5775V22.5ZM19.5775 26.75H22.345C22.315 26.5 22.3038 26.25 22.3113 26C22.3188 25.75 22.3375 25.5 22.3675 25.25H19.5775V26.75ZM17.35 31C16.99 31 16.675 30.85 16.405 30.55C16.135 30.25 16 29.9 16 29.5V12.5C16 12.1 16.135 11.75 16.405 11.45C16.675 11.15 16.99 11 17.35 11H25.4725L30.4 16.475V20.35C30.19 20.2333 29.9725 20.1375 29.7475 20.0625C29.5225 19.9875 29.29 19.925 29.05 19.875V17.15H24.7975V12.5H17.35V29.5H23.2C23.365 29.7833 23.545 30.05 23.74 30.3C23.935 30.55 24.145 30.7833 24.37 31H17.35ZM28.0375 21.275C29.2452 21.275 30.2746 21.7479 31.1257 22.6936C31.9769 23.6394 32.4025 24.7832 32.4025 26.125C32.4025 27.4668 31.9769 28.6106 31.1257 29.5564C30.2746 30.5021 29.2452 30.975 28.0375 30.975C26.8299 30.975 25.8004 30.5021 24.9493 29.5564C24.0981 28.6106 23.6725 27.4668 23.6725 26.125C23.6725 24.7832 24.0981 23.6394 24.9493 22.6936C25.8004 21.7479 26.8299 21.275 28.0375 21.275ZM28.0624 29.225C28.2408 29.225 28.39 29.1574 28.51 29.0223C28.63 28.8872 28.69 28.7205 28.69 28.5223C28.69 28.3241 28.6292 28.1583 28.5076 28.025C28.386 27.8917 28.236 27.825 28.0576 27.825C27.8792 27.825 27.73 27.8926 27.61 28.0277C27.49 28.1628 27.43 28.3295 27.43 28.5277C27.43 28.7259 27.4908 28.8917 27.6124 29.025C27.734 29.1583 27.884 29.225 28.0624 29.225ZM27.61 27.175H28.51V26.9012C28.51 26.7004 28.5588 26.5167 28.6563 26.35C28.7538 26.1833 28.868 26.03 28.9989 25.89C29.228 25.68 29.4138 25.4708 29.5563 25.2625C29.6988 25.0542 29.77 24.7833 29.77 24.45C29.77 23.9214 29.6103 23.4975 29.2908 23.1785C28.9714 22.8595 28.5595 22.7 28.0551 22.7C27.6684 22.7 27.3175 22.8208 27.0025 23.0625C26.6875 23.3042 26.47 23.6374 26.35 24.0621L27.16 24.45C27.19 24.2167 27.2913 24.0208 27.4638 23.8625C27.6363 23.7042 27.8384 23.625 28.0701 23.625C28.3184 23.625 28.5138 23.6938 28.6563 23.8313C28.7988 23.9688 28.87 24.175 28.87 24.45C28.87 24.6333 28.8175 24.7958 28.7125 24.9375C28.6075 25.0792 28.495 25.2167 28.375 25.35C28.255 25.4667 28.1388 25.5833 28.0263 25.7C27.9138 25.8167 27.82 25.9417 27.745 26.075C27.685 26.1917 27.6475 26.3025 27.6325 26.4075C27.6175 26.5125 27.61 26.635 27.61 26.775V27.175Z" fill="#F47920"/>
<defs>
<filter id="filter0_d_141_5278" x="0" y="0" width="52" height="57" filterUnits="userSpaceOnUse" color-interpolation-filters="sRGB">
<feFlood flood-opacity="0" result="BackgroundImageFix"/>
<feColorMatrix in="SourceAlpha" type="matrix" values="0 0 0 0 0 0 0 0 0 0 0 0 0 0 0 0 0 0 127 0" result="hardAlpha"/>
<feMorphology radius="6" operator="erode" in="SourceAlpha" result="effect1_dropShadow_141_5278"/>
<feOffset dy="10"/>
<feGaussianBlur stdDeviation="5.5"/>
<feComposite in2="hardAlpha" operator="out"/>
<feColorMatrix type="matrix" values="0 0 0 0 0.917647 0 0 0 0 0.356863 0 0 0 0 0.572549 0 0 0 1 0"/>
<feBlend mode="normal" in2="BackgroundImageFix" result="effect1_dropShadow_141_5278"/>
<feBlend mode="normal" in="SourceGraphic" in2="effect1_dropShadow_141_5278" result="shape"/>
</filter>
</defs>
</svg>
