<svg width="52" height="57" viewBox="0 0 52 57" fill="none" xmlns="http://www.w3.org/2000/svg">
<g filter="url(#filter0_d_141_5249)">
<circle cx="26" cy="21" r="21" fill="white"/>
</g>
<path d="M24.85 24.675L22.75 22.575C22.6814 22.5083 22.6072 22.4583 22.5272 22.425C22.4472 22.3917 22.3643 22.375 22.2786 22.375C22.1929 22.375 22.1083 22.3938 22.025 22.4313C21.9417 22.4688 21.8667 22.525 21.8 22.6C21.6667 22.7378 21.6 22.9014 21.6 23.0908C21.6 23.2803 21.6667 23.4417 21.8 23.575L24.325 26.1C24.4083 26.1833 24.4928 26.2417 24.5783 26.275C24.6639 26.3083 24.7556 26.325 24.8533 26.325C24.9511 26.325 25.0417 26.3083 25.125 26.275C25.2083 26.2417 25.2917 26.1833 25.375 26.1L30.1 21.375C30.2333 21.2402 30.3 21.0774 30.3 20.8864C30.3 20.6955 30.2328 20.5333 30.0983 20.4C29.9638 20.2667 29.8013 20.2 29.6108 20.2C29.4203 20.2 29.2583 20.2667 29.125 20.4L24.85 24.675ZM19.5 31C19.1 31 18.75 30.85 18.45 30.55C18.15 30.25 18 29.9 18 29.5V12.5C18 12.1 18.15 11.75 18.45 11.45C18.75 11.15 19.1 11 19.5 11H27.9C28.1074 11 28.3051 11.0417 28.493 11.125C28.681 11.2083 28.8417 11.3167 28.975 11.45L33.55 16.025C33.6833 16.1583 33.7917 16.319 33.875 16.507C33.9583 16.6949 34 16.8926 34 17.1V29.5C34 29.9 33.85 30.25 33.55 30.55C33.25 30.85 32.9 31 32.5 31H19.5ZM27.775 16.4V12.5H19.5V29.5H32.5V17.15H28.525C28.3125 17.15 28.1344 17.0781 27.9906 16.9344C27.8469 16.7906 27.775 16.6125 27.775 16.4Z" fill="#F47920"/>
<defs>
<filter id="filter0_d_141_5249" x="0" y="0" width="52" height="57" filterUnits="userSpaceOnUse" color-interpolation-filters="sRGB">
<feFlood flood-opacity="0" result="BackgroundImageFix"/>
<feColorMatrix in="SourceAlpha" type="matrix" values="0 0 0 0 0 0 0 0 0 0 0 0 0 0 0 0 0 0 127 0" result="hardAlpha"/>
<feMorphology radius="6" operator="erode" in="SourceAlpha" result="effect1_dropShadow_141_5249"/>
<feOffset dy="10"/>
<feGaussianBlur stdDeviation="5.5"/>
<feComposite in2="hardAlpha" operator="out"/>
<feColorMatrix type="matrix" values="0 0 0 0 0.917647 0 0 0 0 0.356863 0 0 0 0 0.572549 0 0 0 1 0"/>
<feBlend mode="normal" in2="BackgroundImageFix" result="effect1_dropShadow_141_5249"/>
<feBlend mode="normal" in="SourceGraphic" in2="effect1_dropShadow_141_5249" result="shape"/>
</filter>
</defs>
</svg>
