<svg width="52" height="57" viewBox="0 0 52 57" fill="none" xmlns="http://www.w3.org/2000/svg">
<g filter="url(#filter0_d_141_5299)">
<circle cx="26" cy="21" r="21" fill="white"/>
</g>
<path d="M21 29H17.5C17.0875 29 16.7344 28.8531 16.4406 28.5594C16.1469 28.2656 16 27.9125 16 27.5V14.5C16 14.0875 16.1469 13.7344 16.4406 13.4406C16.7344 13.1469 17.0875 13 17.5 13H34V14.5H17.5V27.5H21V29ZM23.5 29V27.35C23.2 27.0667 22.9583 26.7458 22.775 26.3875C22.5917 26.0292 22.5 25.65 22.5 25.25C22.5 24.85 22.5917 24.4708 22.775 24.1125C22.9583 23.7542 23.2 23.4333 23.5 23.15V21.5H27V23.15C27.3 23.4333 27.5417 23.7542 27.725 24.1125C27.9083 24.4708 28 24.85 28 25.25C28 25.65 27.9083 26.0292 27.725 26.3875C27.5417 26.7458 27.3 27.0667 27 27.35V29H23.5ZM25.247 27C25.7323 27 26.1458 26.8302 26.4875 26.4905C26.8292 26.1507 27 25.7382 27 25.253C27 24.7677 26.8302 24.3542 26.4905 24.0125C26.1507 23.6708 25.7382 23.5 25.253 23.5C24.7677 23.5 24.3542 23.6698 24.0125 24.0095C23.6708 24.3493 23.5 24.7618 23.5 25.247C23.5 25.7323 23.6698 26.1458 24.0095 26.4875C24.3493 26.8292 24.7618 27 25.247 27ZM35.25 29H30.25C30.05 29 29.875 28.925 29.725 28.775C29.575 28.625 29.5 28.45 29.5 28.25V19.25C29.5 19.0375 29.575 18.8594 29.725 18.7156C29.875 18.5719 30.05 18.5 30.25 18.5H35.25C35.4625 18.5 35.6406 18.5719 35.7844 18.7156C35.9281 18.8594 36 19.0375 36 19.25V28.25C36 28.45 35.9281 28.625 35.7844 28.775C35.6406 28.925 35.4625 29 35.25 29ZM31 27.5H34.5V20H31V27.5Z" fill="#F47920"/>
<defs>
<filter id="filter0_d_141_5299" x="0" y="0" width="52" height="57" filterUnits="userSpaceOnUse" color-interpolation-filters="sRGB">
<feFlood flood-opacity="0" result="BackgroundImageFix"/>
<feColorMatrix in="SourceAlpha" type="matrix" values="0 0 0 0 0 0 0 0 0 0 0 0 0 0 0 0 0 0 127 0" result="hardAlpha"/>
<feMorphology radius="6" operator="erode" in="SourceAlpha" result="effect1_dropShadow_141_5299"/>
<feOffset dy="10"/>
<feGaussianBlur stdDeviation="5.5"/>
<feComposite in2="hardAlpha" operator="out"/>
<feColorMatrix type="matrix" values="0 0 0 0 0.917647 0 0 0 0 0.356863 0 0 0 0 0.572549 0 0 0 1 0"/>
<feBlend mode="normal" in2="BackgroundImageFix" result="effect1_dropShadow_141_5299"/>
<feBlend mode="normal" in="SourceGraphic" in2="effect1_dropShadow_141_5299" result="shape"/>
</filter>
</defs>
</svg>
