<svg width="20" height="21" viewBox="0 0 20 21" fill="none" xmlns="http://www.w3.org/2000/svg">
<path d="M13.15 2.16669H6.84996C3.69996 2.16669 2.91663 3.00835 2.91663 6.36669V15.75C2.91663 17.9667 4.13329 18.4917 5.60829 16.9084L5.61663 16.9C6.29996 16.175 7.34163 16.2334 7.93329 17.025L8.77496 18.15C9.44996 19.0417 10.5416 19.0417 11.2166 18.15L12.0583 17.025C12.6583 16.225 13.7 16.1667 14.3833 16.9C15.8666 18.4834 17.075 17.9584 17.075 15.7417V6.36669C17.0833 3.00835 16.3 2.16669 13.15 2.16669ZM12.2916 9.45835H7.70829C7.36663 9.45835 7.08329 9.17502 7.08329 8.83335C7.08329 8.49169 7.36663 8.20835 7.70829 8.20835H12.2916C12.6333 8.20835 12.9166 8.49169 12.9166 8.83335C12.9166 9.17502 12.6333 9.45835 12.2916 9.45835Z" fill="#01000D"/>
</svg>
