<svg width="20" height="21" viewBox="0 0 20 21" fill="none" xmlns="http://www.w3.org/2000/svg">
<path d="M6.56528 10.5583C6.56528 10.2167 6.84861 9.93332 7.19027 9.93332H11.757V2.88332C11.7486 2.48332 11.432 2.16666 11.032 2.16666C6.12361 2.16666 2.69861 5.59166 2.69861 10.5C2.69861 15.4083 6.12361 18.8333 11.032 18.8333C11.4236 18.8333 11.7486 18.5167 11.7486 18.1167V11.175H7.19027C6.84027 11.1833 6.56528 10.9 6.56528 10.5583Z" fill="#515155"/>
<path d="M17.118 10.1168L14.7513 7.7418C14.5097 7.50013 14.1097 7.50013 13.868 7.7418C13.6263 7.98346 13.6263 8.38346 13.868 8.62513L15.168 9.92516H11.7513V11.1752H15.1597L13.8597 12.4752C13.618 12.7168 13.618 13.1168 13.8597 13.3585C13.9847 13.4835 14.143 13.5418 14.3013 13.5418C14.4597 13.5418 14.618 13.4835 14.743 13.3585L17.1097 10.9835C17.3597 10.7502 17.3597 10.3585 17.118 10.1168Z" fill="#515155"/>
</svg>
