<svg width="20" height="21" viewBox="0 0 20 21" fill="none" xmlns="http://www.w3.org/2000/svg">
<path d="M12.375 3.79232V6.95898H11.125V3.79232C11.125 3.56732 10.925 3.45898 10.7917 3.45898C10.75 3.45898 10.7084 3.46732 10.6667 3.48398L4.05837 5.97565C3.61671 6.14232 3.33337 6.55898 3.33337 7.03398V7.59232C2.57504 8.15898 2.08337 9.06733 2.08337 10.0923V7.03398C2.08337 6.04232 2.69171 5.15898 3.61671 4.80898L10.2334 2.30898C10.4167 2.24232 10.6084 2.20898 10.7917 2.20898C11.625 2.20898 12.375 2.88398 12.375 3.79232ZM17.9173 12.5833V13.4167C17.9173 13.6417 17.7423 13.825 17.509 13.8333H16.2923C15.8506 13.8333 15.4506 13.5083 15.4173 13.075C15.3923 12.8167 15.4923 12.575 15.659 12.4083C15.809 12.25 16.0173 12.1667 16.2423 12.1667H17.5006C17.7423 12.175 17.9173 12.3583 17.9173 12.5833Z" fill="#01000D"/>
<path d="M16.2334 11.2916H17.0834C17.5417 11.2916 17.9167 10.9166 17.9167 10.4583V10.0916C17.9167 8.36665 16.5084 6.95831 14.7834 6.95831H5.21671C4.50837 6.95831 3.85837 7.19165 3.33337 7.59165C2.57504 8.15831 2.08337 9.06665 2.08337 10.0916V15.7C2.08337 17.425 3.49171 18.8333 5.21671 18.8333H14.7834C16.5084 18.8333 17.9167 17.425 17.9167 15.7V15.5416C17.9167 15.0833 17.5417 14.7083 17.0834 14.7083H16.3584C15.5584 14.7083 14.7917 14.2166 14.5834 13.4416C14.4084 12.8083 14.6167 12.2 15.0334 11.7916C15.3417 11.475 15.7667 11.2916 16.2334 11.2916ZM11.6667 11.125H5.83337C5.49171 11.125 5.20837 10.8416 5.20837 10.5C5.20837 10.1583 5.49171 9.87498 5.83337 9.87498H11.6667C12.0084 9.87498 12.2917 10.1583 12.2917 10.5C12.2917 10.8416 12.0084 11.125 11.6667 11.125Z" fill="#01000D"/>
</svg>
