<svg width="24" height="24" viewBox="0 0 24 24" fill="none" xmlns="http://www.w3.org/2000/svg">
<path d="M12 19C10.1833 19 8.61667 18.4 7.3 17.2C5.98333 16 5.23333 14.5167 5.05 12.75H2.75C2.5375 12.75 2.35938 12.6777 2.21563 12.5331C2.07188 12.3885 2 12.2094 2 11.9956C2 11.7819 2.07188 11.6042 2.21563 11.4625C2.35938 11.3208 2.5375 11.25 2.75 11.25H5.05C5.23333 9.48333 5.98333 8 7.3 6.8C8.61667 5.6 10.1833 5 12 5C13.8167 5 15.3833 5.6 16.7 6.8C18.0167 8 18.7667 9.48333 18.95 11.25H21.25C21.4625 11.25 21.6406 11.3223 21.7844 11.4669C21.9281 11.6115 22 11.7906 22 12.0044C22 12.2181 21.9281 12.3958 21.7844 12.5375C21.6406 12.6792 21.4625 12.75 21.25 12.75H18.95C18.7667 14.5167 18.0167 16 16.7 17.2C15.3833 18.4 13.8167 19 12 19ZM12.0124 17.5C13.5375 17.5 14.8333 16.9625 15.9 15.8876C16.9667 14.8127 17.5 13.5127 17.5 11.9876C17.5 10.4625 16.9667 9.16667 15.9 8.1C14.8333 7.03333 13.5375 6.5 12.0124 6.5C10.4873 6.5 9.18727 7.03333 8.11237 8.1C7.03746 9.16667 6.5 10.4625 6.5 11.9876C6.5 13.5127 7.03746 14.8127 8.11237 15.8876C9.18727 16.9625 10.4873 17.5 12.0124 17.5ZM10.0835 15.375H13.9176C14.1892 15.375 14.4167 15.284 14.6 15.1021C14.7833 14.9202 14.875 14.6948 14.875 14.4259V11.5784C14.875 11.3095 14.784 11.0833 14.6019 10.9C14.4198 10.7167 14.1942 10.625 13.925 10.625H13.9V9.6C13.9 9.06667 13.7168 8.60417 13.3505 8.2125C12.9841 7.82083 12.5301 7.625 11.9885 7.625C11.4628 7.625 11.0167 7.82083 10.65 8.2125C10.2833 8.60417 10.1 9.06667 10.1 9.6V10.625H10.075C9.80583 10.625 9.58021 10.716 9.39812 10.8979C9.21604 11.0798 9.125 11.3052 9.125 11.5742V14.4216C9.125 14.6905 9.21686 14.9167 9.40058 15.1C9.58429 15.2833 9.81194 15.375 10.0835 15.375ZM12 13.75C11.7833 13.75 11.6042 13.6792 11.4625 13.5375C11.3208 13.3958 11.25 13.2167 11.25 13C11.25 12.7833 11.3208 12.6042 11.4625 12.4625C11.6042 12.3208 11.7833 12.25 12 12.25C12.2167 12.25 12.3958 12.3208 12.5375 12.4625C12.6792 12.6042 12.75 12.7833 12.75 13C12.75 13.2167 12.6792 13.3958 12.5375 13.5375C12.3958 13.6792 12.2167 13.75 12 13.75ZM10.85 10.625V9.6C10.85 9.26667 10.9602 8.97917 11.1806 8.7375C11.401 8.49583 11.6742 8.375 12 8.375C12.3258 8.375 12.599 8.49583 12.8194 8.7375C13.0398 8.97917 13.15 9.26667 13.15 9.6V10.625H10.85Z" fill="black"/>
</svg>
