<svg width="20" height="21" viewBox="0 0 20 21" fill="none" xmlns="http://www.w3.org/2000/svg">
<path d="M10.35 3C15.0833 3 18.6667 6.88082 18.6667 11.3208C18.6667 16.4702 14.4667 19.6667 10.3333 19.6667C8.96667 19.6667 7.45 19.2994 6.23333 18.5817C5.80833 18.323 5.45 18.131 4.99167 18.2813L3.30833 18.782C2.88333 18.9155 2.5 18.5817 2.625 18.131L3.18333 16.2616C3.275 16.0028 3.25833 15.7274 3.125 15.5104C2.40833 14.1918 2 12.748 2 11.3459C2 6.95593 5.50833 3 10.35 3ZM14.1583 10.2859C13.5667 10.2859 13.0917 10.7616 13.0917 11.3542C13.0917 11.9384 13.5667 12.4225 14.1583 12.4225C14.75 12.4225 15.225 11.9384 15.225 11.3542C15.225 10.7616 14.75 10.2859 14.1583 10.2859ZM10.3167 10.2859C9.73333 10.2776 9.25 10.7616 9.25 11.3459C9.25 11.9384 9.725 12.4141 10.3167 12.4225C10.9083 12.4225 11.3833 11.9384 11.3833 11.3542C11.3833 10.7616 10.9083 10.2859 10.3167 10.2859ZM6.475 10.2859C5.88333 10.2859 5.40833 10.7616 5.40833 11.3542C5.40833 11.9384 5.89167 12.4225 6.475 12.4225C7.06667 12.4141 7.54167 11.9384 7.54167 11.3542C7.54167 10.7616 7.06667 10.2859 6.475 10.2859Z" fill="#01000D"/>
</svg>
