<svg width="20" height="21" viewBox="0 0 20 21" fill="none" xmlns="http://www.w3.org/2000/svg">
<path d="M16.7503 8.18458C15.242 8.18458 14.6253 7.11792 15.3753 5.80958C15.8087 5.05125 15.5503 4.08458 14.792 3.65125L13.3503 2.82625C12.692 2.43458 11.842 2.66792 11.4503 3.32625L11.3587 3.48458C10.6087 4.79292 9.37533 4.79292 8.61699 3.48458L8.52533 3.32625C8.15033 2.66792 7.30033 2.43458 6.64199 2.82625L5.20033 3.65125C4.44199 4.08458 4.18366 5.05958 4.61699 5.81792C5.37533 7.11792 4.75866 8.18458 3.25033 8.18458C2.38366 8.18458 1.66699 8.89291 1.66699 9.76791V11.2346C1.66699 12.1012 2.37533 12.8179 3.25033 12.8179C4.75866 12.8179 5.37533 13.8846 4.61699 15.1929C4.18366 15.9512 4.44199 16.9179 5.20033 17.3512L6.64199 18.1762C7.30033 18.5679 8.15033 18.3346 8.54199 17.6762L8.63366 17.5179C9.38366 16.2096 10.617 16.2096 11.3753 17.5179L11.467 17.6762C11.8587 18.3346 12.7087 18.5679 13.367 18.1762L14.8087 17.3512C15.567 16.9179 15.8253 15.9429 15.392 15.1929C14.6337 13.8846 15.2503 12.8179 16.7587 12.8179C17.6253 12.8179 18.342 12.1096 18.342 11.2346V9.76791C18.3337 8.90125 17.6253 8.18458 16.7503 8.18458ZM10.0003 13.2096C8.50866 13.2096 7.29199 11.9929 7.29199 10.5012C7.29199 9.00958 8.50866 7.79292 10.0003 7.79292C11.492 7.79292 12.7087 9.00958 12.7087 10.5012C12.7087 11.9929 11.492 13.2096 10.0003 13.2096Z" fill="#01000D"/>
</svg>
