<svg width="20" height="21" viewBox="0 0 20 21" fill="none" xmlns="http://www.w3.org/2000/svg">
<path d="M13.95 3C16.775 3 18.6667 4.98333 18.6667 7.93333L18.6667 14.7425C18.6667 17.6833 16.775 19.6667 13.95 19.6667L6.725 19.6667C3.9 19.6667 2 17.6833 2 14.7425L2 7.93333C2 4.98333 3.9 3 6.725 3L13.95 3ZM13.8167 8.83333C13.5333 8.55 13.0667 8.55 12.7833 8.83333L9.34167 12.275L7.88333 10.8167C7.6 10.5333 7.13333 10.5333 6.85 10.8167C6.56667 11.1 6.56667 11.5583 6.85 11.85L8.83333 13.825C8.975 13.9667 9.15833 14.0333 9.34167 14.0333C9.53333 14.0333 9.71667 13.9667 9.85833 13.825L13.8167 9.86667C14.1 9.58333 14.1 9.125 13.8167 8.83333Z" fill="#01000D"/>
</svg>
