<svg width="20" height="21" viewBox="0 0 20 21" fill="none" xmlns="http://www.w3.org/2000/svg">
<path d="M13.5414 3C13.8952 2.99917 14.1749 3.27403 14.1757 3.64052L14.1766 4.2652C16.4721 4.44511 17.9885 6.00933 17.9909 8.40813L18 15.4296C18.0033 18.045 16.3602 19.6542 13.7265 19.6583L7.29324 19.6667C4.676 19.67 3.01235 18.0225 3.00906 15.3996L3.00001 8.4606C2.99672 6.04598 4.45961 4.48593 6.75515 4.2752L6.75432 3.65051C6.7535 3.28403 7.02502 3.00833 7.38704 3.00833C7.74906 3.0075 8.02057 3.28236 8.0214 3.64885L8.02222 4.23189L12.9095 4.22522L12.9087 3.64218C12.9078 3.2757 13.1794 3.00084 13.5414 3ZM13.8771 14.8266H13.8688C13.4904 14.8357 13.1868 15.1531 13.195 15.5362C13.1958 15.9194 13.5011 16.235 13.8795 16.2434C14.2654 16.2425 14.5781 15.9252 14.5773 15.5337C14.5773 15.1423 14.2638 14.8266 13.8771 14.8266ZM7.09742 14.8274C6.71895 14.8441 6.42275 15.1614 6.42357 15.5446C6.44085 15.9277 6.7535 16.2275 7.13198 16.2101C7.50305 16.1934 7.79842 15.8761 7.78115 15.4929C7.77292 15.1181 7.46767 14.8266 7.09742 14.8274ZM10.4872 14.8233C10.1088 14.8407 9.8134 15.1573 9.8134 15.5404C9.83067 15.9235 10.1433 16.2226 10.5218 16.2059C10.8921 16.1884 11.1882 15.8719 11.171 15.4879C11.1627 15.1139 10.8575 14.8224 10.4872 14.8233ZM7.09331 11.8289C6.71483 11.8456 6.41946 12.1629 6.42028 12.5461C6.43673 12.9292 6.75021 13.229 7.12869 13.2116C7.49893 13.1949 7.79431 12.8776 7.77703 12.4944C7.7688 12.1196 7.46438 11.8281 7.09331 11.8289ZM10.484 11.7998C10.1055 11.8164 9.80928 12.1338 9.8101 12.5169C9.82656 12.9 10.14 13.1991 10.5185 13.1824C10.8888 13.1649 11.1841 12.8484 11.1677 12.4653C11.1586 12.0905 10.8542 11.7989 10.484 11.7998ZM13.8738 11.8039C13.4953 11.8123 13.1991 12.1204 13.1999 12.5036V12.5127C13.2082 12.8959 13.5208 13.1866 13.9001 13.1782C14.2704 13.1691 14.5657 12.8517 14.5575 12.4686C14.5402 12.1021 14.2432 11.8031 13.8738 11.8039ZM12.9111 5.50791L8.02386 5.51458L8.02469 6.18841C8.02469 6.54739 7.75399 6.83059 7.39197 6.83059C7.02995 6.83142 6.75762 6.54906 6.75762 6.19007L6.75679 5.54873C5.15239 5.70948 4.26461 6.65234 4.26708 8.45894L4.2679 8.71797L16.7247 8.70132V8.4098C16.6893 6.61903 15.7908 5.6795 14.1782 5.53957L14.179 6.18091C14.179 6.53907 13.9001 6.82309 13.5463 6.82309C13.1843 6.82392 12.912 6.54073 12.912 6.18258L12.9111 5.50791Z" fill="#01000D"/>
</svg>
