<svg width="20" height="21" viewBox="0 0 20 21" fill="none" xmlns="http://www.w3.org/2000/svg">
<path d="M14.4492 4C15.5667 4 16.6417 4.44167 17.4325 5.23417C18.2242 6.025 18.6667 7.09167 18.6667 8.20833L18.6667 14.7917C18.6667 17.1167 16.775 19 14.4492 19H6.21667C3.89083 19 2 17.1167 2 14.7917L2 8.20833C2 5.88333 3.8825 4 6.21667 4L14.4492 4ZM15.3917 8.33333C15.2167 8.32417 15.05 8.38333 14.9242 8.5L11.1667 11.5C10.6833 11.9008 9.99083 11.9008 9.5 11.5L5.75 8.5C5.49083 8.30833 5.1325 8.33333 4.91667 8.55833C4.69167 8.78333 4.66667 9.14167 4.8575 9.39167L4.96667 9.5L8.75833 12.4583C9.225 12.825 9.79083 13.025 10.3833 13.025C10.9742 13.025 11.55 12.825 12.0158 12.4583L15.775 9.45L15.8417 9.38333C16.0408 9.14167 16.0408 8.79167 15.8325 8.55C15.7167 8.42583 15.5575 8.35 15.3917 8.33333Z" fill="#01000D"/>
</svg>
