<svg width="24" height="24" viewBox="0 0 24 24" fill="none" xmlns="http://www.w3.org/2000/svg">
<path d="M17.1 14.475C16.442 14.475 15.8858 14.2478 15.4315 13.7935C14.9772 13.3391 14.75 12.783 14.75 12.125C14.75 11.467 14.9772 10.9108 15.4315 10.4565C15.8858 10.0021 16.442 9.77498 17.1 9.77498C17.758 9.77498 18.3142 10.0021 18.7685 10.4565C19.2228 10.9108 19.45 11.467 19.45 12.125C19.45 12.783 19.2228 13.3391 18.7685 13.7935C18.3142 14.2478 17.758 14.475 17.1 14.475ZM12.2 20V18.725C12.2 18.2916 12.2917 17.9208 12.475 17.6125C12.6583 17.3041 12.9167 17.0666 13.25 16.9C13.8667 16.5833 14.4917 16.35 15.125 16.2C15.7583 16.05 16.4167 15.975 17.1 15.975C17.7833 15.975 18.4417 16.0458 19.075 16.1875C19.7083 16.3291 20.3333 16.5666 20.95 16.9C21.2833 17.05 21.5417 17.2833 21.725 17.6C21.9083 17.9166 22 18.2916 22 18.725V20H12.2ZM10 11.975C8.9 11.975 8 11.625 7.3 10.925C6.6 10.225 6.25 9.32498 6.25 8.22498C6.25 7.12498 6.6 6.22498 7.3 5.52498C8 4.82498 8.9 4.47498 10 4.47498C11.1 4.47498 12 4.82498 12.7 5.52498C13.4 6.22498 13.75 7.12498 13.75 8.22498C13.75 9.32498 13.4 10.225 12.7 10.925C12 11.625 11.1 11.975 10 11.975ZM2 20V17.65C2 17.0833 2.14167 16.5625 2.425 16.0875C2.70833 15.6125 3.13056 15.25 3.69168 15C4.81389 14.5 5.8875 14.125 6.9125 13.875C7.9375 13.625 8.96454 13.5 9.99362 13.5C10.5312 13.5 11.0083 13.525 11.425 13.575C11.8417 13.625 12.2917 13.7 12.775 13.8L12.1375 14.4375L11.5 15.075C11.2833 15.0416 11.05 15.0208 10.8 15.0125C10.55 15.0041 10.2833 15 10 15C9.05622 15 8.13277 15.0958 7.22965 15.2875C6.32655 15.4791 5.35 15.8333 4.3 16.35C4.06667 16.4666 3.875 16.65 3.725 16.9C3.575 17.15 3.5 17.4 3.5 17.65V18.5H10.7V20H2ZM10 10.475C10.65 10.475 11.1875 10.2625 11.6125 9.83748C12.0375 9.41248 12.25 8.87498 12.25 8.22498C12.25 7.57498 12.0375 7.03748 11.6125 6.61248C11.1875 6.18748 10.65 5.97498 10 5.97498C9.35 5.97498 8.8125 6.18748 8.3875 6.61248C7.9625 7.03748 7.75 7.57498 7.75 8.22498C7.75 8.87498 7.9625 9.41248 8.3875 9.83748C8.8125 10.2625 9.35 10.475 10 10.475Z" fill="black"/>
</svg>
