<svg width="20" height="21" viewBox="0 0 20 21" fill="none" xmlns="http://www.w3.org/2000/svg">
<path d="M13.4916 2.16669H6.50829C3.47496 2.16669 1.66663 3.97502 1.66663 7.00835V13.9834C1.66663 17.025 3.47496 18.8334 6.50829 18.8334H13.4833C16.5166 18.8334 18.325 17.025 18.325 13.9917V7.00835C18.3333 3.97502 16.525 2.16669 13.4916 2.16669ZM14.3833 8.80002L12.4583 11.2834C12.2166 11.5917 11.875 11.7917 11.4833 11.8334C11.0916 11.8834 10.7083 11.775 10.4 11.5334L8.87496 10.3334C8.81663 10.2834 8.74996 10.2834 8.71663 10.2917C8.68329 10.2917 8.62496 10.3084 8.57496 10.375L6.59163 12.95C6.46663 13.1084 6.28329 13.1917 6.09996 13.1917C5.96663 13.1917 5.83329 13.15 5.71663 13.0584C5.44163 12.85 5.39163 12.4584 5.59996 12.1834L7.58329 9.60835C7.82496 9.30002 8.16663 9.10002 8.55829 9.05002C8.94163 9.00002 9.33329 9.10835 9.64163 9.35002L11.1666 10.55C11.225 10.6 11.2833 10.6 11.325 10.5917C11.3583 10.5917 11.4166 10.575 11.4666 10.5084L13.3916 8.02502C13.6 7.75002 14 7.70002 14.2666 7.91669C14.5416 8.14169 14.5916 8.53335 14.3833 8.80002Z" fill="#01000D"/>
</svg>
